<?xml version="1.0" encoding="utf-8"?>
<svg xmlns="http://www.w3.org/2000/svg" width="285.3301715957386" height="304.920004272461" viewBox="0 0 335 358" class="looka-1j8o68f" xmlns:bx="https://boxy-svg.com">
  <defs id="SvgjsDefs1743">
    <bx:export>
      <bx:file format="svg"/>
    </bx:export>
  </defs>
  <rect x="-0.156" y="6.252" width="334.439" height="348.266" style="fill: rgb(255, 255, 255);"/>
  <g id="SvgjsG1744" featurekey="rootContainer" transform="matrix(1,0,0,1,0,0)" fill="#f6f6f6">
    <path xmlns="http://www.w3.org/2000/svg" fill-rule="nonzero" d="             M0,0             H335             V358             H0,0             z             M4,4             v350             h327             v-350             z     "/>
  </g>
  <g id="SvgjsG1745" featurekey="symbolFeature-0" transform="matrix(2.142646074295044,0,0,2.142646074295044,66.22937045917928,9.723278094529435)" fill="#7dd856">
    <g xmlns="http://www.w3.org/2000/svg">
      <g>
        <path d="M62.492,24.982c-3.843,0-6.968,3.126-6.968,6.968c0,3.843,3.125,6.969,6.968,6.969s6.969-3.126,6.969-6.969    C69.461,28.108,66.335,24.982,62.492,24.982z"/>
        <path d="M48.394,49.099c-3.843,0-6.969,3.126-6.969,6.968c0,3.843,3.126,6.969,6.969,6.969c3.842,0,6.969-3.126,6.969-6.969    C55.362,52.225,52.235,49.099,48.394,49.099z"/>
        <path d="M41.111,44.562c-0.56-0.485-1.484-0.419-1.967,0.139l-3.511,4.042c-0.243,0.28-0.363,0.639-0.337,1.009    c0.024,0.373,0.194,0.712,0.476,0.956c0.254,0.221,0.578,0.342,0.914,0.342c0.405,0,0.789-0.176,1.053-0.48l3.509-4.042    c0.245-0.28,0.365-0.638,0.339-1.009C41.561,45.146,41.392,44.808,41.111,44.562z"/>
        <path d="M40.028,34.975c0.243,0.185,0.533,0.282,0.838,0.282c0.443,0,0.848-0.201,1.113-0.554l3.226-4.274    c0.224-0.297,0.319-0.664,0.268-1.032c-0.052-0.369-0.243-0.696-0.54-0.919c-0.599-0.453-1.502-0.326-1.952,0.272l-3.225,4.274    c-0.226,0.297-0.32,0.665-0.269,1.033C39.539,34.424,39.731,34.751,40.028,34.975z"/>
        <path d="M48.392,19.669l4.274,3.225c0.243,0.185,0.534,0.282,0.84,0.282c0.44,0,0.847-0.202,1.111-0.553    c0.185-0.244,0.282-0.535,0.282-0.84c0-0.442-0.202-0.848-0.555-1.112l-4.275-3.226c-0.596-0.451-1.502-0.322-1.951,0.272    c-0.225,0.297-0.32,0.664-0.27,1.032C47.9,19.118,48.093,19.445,48.392,19.669z"/>
        <circle cx="35.979" cy="21.911" r="2.08"/>
        <circle cx="49.294" cy="41.921" r="2.081"/>
        <circle cx="52.703" cy="66.51" r="2.081"/>
        <path d="M91.671,19.25c-0.27-1.799-1.223-3.383-2.686-4.458C77.817,6.54,63.151,1.996,47.685,1.996    c-15.463,0-30.129,4.544-41.297,12.796c-1.457,1.077-2.41,2.661-2.685,4.463c-0.269,1.806,0.178,3.602,1.259,5.058    c1.297,1.76,3.298,2.77,5.489,2.77c0.126,0,0.251-0.003,0.374-0.01l35.431,66.167c0.243,0.451,0.712,0.733,1.226,0.736h0.003    c0.511,0,0.981-0.28,1.225-0.73l35.833-66.177c0.127,0.006,0.253,0.009,0.38,0.009c2.194,0,4.194-1.007,5.488-2.765    C91.494,22.85,91.942,21.052,91.671,19.25z M38.198,68.507c-0.293,0.675-0.638,1.47-0.768,2.346l-3.559-6.647    c0.734,0.254,1.484,0.348,2.119,0.428c1.363,0.171,2.097,0.299,2.557,1.108C39.009,66.55,38.745,67.246,38.198,68.507z     M63.961,59.225c-0.162-0.571-0.392-1.102-0.603-1.588c-0.547-1.26-0.812-1.956-0.35-2.764c0.46-0.81,1.193-0.937,2.555-1.107    c0.441-0.055,0.96-0.12,1.485-0.244L63.961,59.225z M70.459,47.224c-0.147-0.431-0.321-0.835-0.481-1.205    c-0.549-1.26-0.812-1.955-0.354-2.759l6.451-11.01c0.188-0.322,0.24-0.698,0.146-1.06c-0.094-0.359-0.323-0.66-0.642-0.846    c-0.643-0.379-1.534-0.143-1.908,0.496l-6.461,11.023c-1.179,2.07-0.377,3.917,0.208,5.266c0.548,1.26,0.812,1.955,0.352,2.763    c-0.459,0.809-1.191,0.936-2.557,1.106c-0.522,0.066-1.115,0.143-1.715,0.306c0.027-0.028,0.057-0.051,0.082-0.082    c0.479-0.6,0.381-1.479-0.217-1.96l-4.182-3.345c-0.577-0.463-1.493-0.36-1.961,0.217c-0.479,0.6-0.38,1.479,0.219,1.96    l4.181,3.345c0.22,0.174,0.487,0.274,0.765,0.296c-0.678,0.356-1.311,0.897-1.801,1.754c-1.172,2.059-0.369,3.906,0.216,5.254    c0.548,1.26,0.812,1.956,0.351,2.765c-0.184,0.323-0.23,0.699-0.133,1.059c0.1,0.359,0.332,0.657,0.655,0.841    c0.005,0.003,0.01,0.007,0.015,0.009l-9.145,16.89c0.018-0.181,0.03-0.363,0.03-0.548v-5.018c0-1.076,0.875-1.951,1.951-1.951    c0.769,0,1.394-0.625,1.394-1.394c0-0.769-0.625-1.394-1.394-1.394c-2.612,0-4.738,2.125-4.738,4.738v5.018    c0,1.039-0.651,1.951-1.394,1.951c-0.743,0-1.395-0.912-1.395-1.951v-5.018c0-2.613-2.125-4.738-4.738-4.738    c-0.768,0-1.393,0.625-1.393,1.394c0,0.769,0.625,1.394,1.393,1.394c1.076,0,1.951,0.875,1.951,1.951v5.018    c0,2.613,1.877,4.738,4.182,4.738c0.854,0,1.648-0.293,2.312-0.793l-3.214,5.935l-8.133-15.188    c0.184-0.021,0.362-0.08,0.523-0.172c0.324-0.185,0.557-0.483,0.655-0.843c0.099-0.359,0.052-0.734-0.133-1.057    c-0.46-0.81-0.195-1.506,0.351-2.766c0.586-1.348,1.387-3.195,0.216-5.254c-1.174-2.057-3.171-2.309-4.632-2.492    c-1.362-0.171-2.094-0.298-2.553-1.107c-0.461-0.807-0.197-1.502,0.352-2.764c0.585-1.348,1.387-3.194,0.205-5.267L28.13,42.128    c0.064,0.001,0.13,0.002,0.193,0.002c3.844,0,6.969-3.126,6.969-6.969s-3.125-6.968-6.969-6.968c-3.842,0-6.967,3.125-6.967,6.968    c0,2.791,1.681,5.307,4.227,6.4c-0.337,0.437-0.396,1.056-0.103,1.558l6.45,11.005c0.461,0.808,0.195,1.503-0.352,2.763    c-0.227,0.522-0.494,1.136-0.659,1.804L13.581,26.313c0.328-0.169,0.636-0.359,0.916-0.568c8.756-6.469,20.543-10.03,33.191-10.03    s24.438,3.562,33.197,10.032c0.276,0.206,0.578,0.394,0.899,0.561L70.459,47.224z M88.169,22.657    c-0.766,1.038-1.948,1.633-3.247,1.633c-0.864,0-1.687-0.271-2.378-0.784c-9.237-6.822-21.615-10.579-34.855-10.579    S22.073,16.683,12.84,23.503c-0.698,0.518-1.524,0.792-2.389,0.792c-1.296,0-2.48-0.598-3.249-1.64    c-0.637-0.859-0.9-1.92-0.743-2.985c0.163-1.066,0.726-2.002,1.585-2.636c10.692-7.9,24.77-12.251,39.641-12.251    c14.873,0,28.953,4.351,39.646,12.252c0.863,0.635,1.424,1.568,1.582,2.627C89.075,20.727,88.811,21.792,88.169,22.657z"/>
      </g>
    </g>
  </g>
  <g id="SvgjsG1746" featurekey="nameFeature-0" transform="matrix(1.7129805088043213,0,0,1.7129805088043213,16.10925018384514,211.4035040445931)" fill="#f6f6f6">
    <path d="M0.52 40 c0 0 1.88 -2.4 1.88 -4.76 l0 -18.48 c0 -2.36 -1.88 -4.76 -1.88 -4.76 l11.76 0 s-1.88 2.4 -1.88 4.76 l0 18.48 c0 2.36 1.88 4.76 1.88 4.76 l-11.76 0 z M13.32 40 c0 0 1.8744 -2.3868 1.8744 -4.7732 l0 -18.453 c0 -2.3868 -1.8744 -4.7736 -1.8744 -4.7736 l11.428 0 s-0.31359 1.9612 0.8916 4.7736 l5.1544 12.026 l0 -12.026 c0 -2.3868 -1.8744 -4.7736 -1.8744 -4.7736 l10.948 0 s-1.874 2.3868 -1.874 4.7736 l0 18.453 c0 2.3864 1.874 4.7732 1.874 4.7732 l-11.428 0 s0.26762 -1.9664 -0.9916 -4.768 l-5.054 -11.232 l0 11.227 c0 2.3864 1.874 4.7732 1.874 4.7732 l-10.948 0 z M46.32000000000001 40 c0 0 1.88 -2.4 1.88 -4.76 l0 -16.84 l-2.44 0 c-2.36 0 -4.76 1.88 -4.76 1.88 l0 -8.28 l22.4 0 l0 8.28 s-2.4 -1.88 -4.76 -1.88 l-2.44 0 l0 16.84 c0 2.36 1.88 4.76 1.88 4.76 l-11.76 0 z M78.44 40.56 c-7.32 0 -13.64 -3.6 -13.64 -14.56 c0 -9.4 5.52 -14.56 12.84 -14.56 s13.64 3.6 13.64 14.56 c0 9.44 -5.52 14.56 -12.84 14.56 z M78.2 34.76 c2.68 0 4.68 -3.12 4.68 -8.76 c0 -6.6 -2.32 -8.72 -5 -8.72 s-4.68 3.08 -4.68 8.72 c0 6.6 2.32 8.76 5 8.76 z M108 40 c0 0 1.88 -2.4 1.88 -4.76 l0 -16.84 l-2.44 0 c-2.36 0 -4.76 1.88 -4.76 1.88 l0 -8.28 l22.4 0 l0 8.28 s-2.4 -1.88 -4.76 -1.88 l-2.44 0 l0 16.84 c0 2.36 1.88 4.76 1.88 4.76 l-11.76 0 z M126.2 40 c0 0 1.88 -2.36 1.88 -4.76 l0 -18.44 c0 -2.4 -1.88 -4.8 -1.88 -4.8 l11.76 0 s-1.88 2.4 -1.88 4.8 l0 6.4 l8.4 0 l0 -6.4 c0 -2.4 -1.88 -4.8 -1.88 -4.8 l11.76 0 s-1.88 2.4 -1.88 4.8 l0 18.44 c0 2.4 1.88 4.76 1.88 4.76 l-11.76 0 s1.88 -2.36 1.88 -4.76 l0 -5.64 l-8.4 0 l0 5.64 c0 2.4 1.88 4.76 1.88 4.76 l-11.76 0 z M155.4 40 c0 0 1.88 -2.36 1.88 -4.76 l0 -18.44 c0 -2.4 -1.88 -4.8 -1.88 -4.8 l21.48 0 l0 8.28 s-2.4 -1.88 -4.8 -1.88 l-6.8 0 l0 5.2 l2.8 0 c2.4 0 4.8 -1.88 4.8 -1.88 l0 9.36 s-2.4 -1.88 -4.8 -1.88 l-2.8 0 l0 4.4 l6.8 0 c2.4 0 4.8 -1.88 4.8 -1.88 l0 8.28 l-21.48 0 z" style="fill: rgb(0, 0, 0);"/>
  </g>
  <g id="SvgjsG1747" featurekey="nameFeature-1" transform="matrix(1.821339726448059,0,0,1.821339726448059,16.052900797832798,270.09102656550016)" fill="#f6f6f6">
    <path d="M16.76 40 c0 0 0.99724 -1.534 -0.5388 -4.5648 l-3.2612 -6.1552 l-2.56 3.36 l0 2.56 c0 2.4 1.88 4.76 1.88 4.76 l-11.76 0 s1.88 -2.36 1.88 -4.76 l0 -18.44 c0 -2.4 -1.88 -4.8 -1.88 -4.8 l11.76 0 s-1.88 2.4 -1.88 4.8 l0 5.8 l4.0088 -6.0824 c1.7556 -2.7112 1.4712 -4.4776 1.4712 -4.4776 l11.544 0 s-2.9508 2.2084 -4.6372 4.4168 l-5.5468 7.2632 l5.5676 8.7372 c2.4164 3.7916 6.6324 7.5828 6.6324 7.5828 l-12.68 0 z M28.96 40 c0 0 1.88 -2.4 1.88 -4.76 l0 -18.48 c0 -2.36 -1.88 -4.76 -1.88 -4.76 l11.76 0 s-1.88 2.4 -1.88 4.76 l0 18.48 c0 2.36 1.88 4.76 1.88 4.76 l-11.76 0 z M47.160000000000004 40 c0 0 1.88 -2.4 1.88 -4.76 l0 -16.84 l-2.44 0 c-2.36 0 -4.76 1.88 -4.76 1.88 l0 -8.28 l22.4 0 l0 8.28 s-2.4 -1.88 -4.76 -1.88 l-2.44 0 l0 16.84 c0 2.36 1.88 4.76 1.88 4.76 l-11.76 0 z M78.96000000000001 40.6 c-7.2 -0.12 -13.32 -3.76 -13.32 -14.56 c0 -9.44 5.52 -14.56 12.84 -14.56 c3.6 0 7.96 1.8 7.96 1.8 l-3.04 7.92 s-2.4 -3.96 -4.84 -3.96 c-2.8 0 -4.68 2.68 -4.68 8.4 c0 6.6 2.4 9.2 5.16 9.2 c2.44 0 4.84 -3.84 4.84 -3.84 l3.04 7.92 s-4.16 1.56 -7.64 1.68 l-0.32 0 z M87.84 40 c0 0 1.88 -2.36 1.88 -4.76 l0 -18.44 c0 -2.4 -1.88 -4.8 -1.88 -4.8 l11.76 0 s-1.88 2.4 -1.88 4.8 l0 6.4 l8.4 0 l0 -6.4 c0 -2.4 -1.88 -4.8 -1.88 -4.8 l11.76 0 s-1.88 2.4 -1.88 4.8 l0 18.44 c0 2.4 1.88 4.76 1.88 4.76 l-11.76 0 s1.88 -2.36 1.88 -4.76 l0 -5.64 l-8.4 0 l0 5.64 c0 2.4 1.88 4.76 1.88 4.76 l-11.76 0 z M117.04 40 c0 0 1.88 -2.36 1.88 -4.76 l0 -18.44 c0 -2.4 -1.88 -4.8 -1.88 -4.8 l21.48 0 l0 8.28 s-2.4 -1.88 -4.8 -1.88 l-6.8 0 l0 5.2 l2.8 0 c2.4 0 4.8 -1.88 4.8 -1.88 l0 9.36 s-2.4 -1.88 -4.8 -1.88 l-2.8 0 l0 4.4 l6.8 0 c2.4 0 4.8 -1.88 4.8 -1.88 l0 8.28 l-21.48 0 z M139.84000000000003 40 c0 0 1.8744 -2.3868 1.8744 -4.7732 l0 -18.453 c0 -2.3868 -1.8744 -4.7736 -1.8744 -4.7736 l11.428 0 s-0.31359 1.9612 0.8916 4.7736 l5.1544 12.026 l0 -12.026 c0 -2.3868 -1.8744 -4.7736 -1.8744 -4.7736 l10.948 0 s-1.874 2.3868 -1.874 4.7736 l0 18.453 c0 2.3864 1.874 4.7732 1.874 4.7732 l-11.428 0 s0.26762 -1.9664 -0.9916 -4.768 l-5.054 -11.232 l0 11.227 c0 2.3864 1.874 4.7732 1.874 4.7732 l-10.948 0 z" style="fill: rgb(0, 0, 0);"/>
  </g>
</svg>